<?xml version="1.0" encoding="UTF-8"?>
<svg xmlns="http://www.w3.org/2000/svg" version="1.1" viewBox="0 0 1438.9 615.8">
  <defs>
    <style>
      .cls-1 {
        fill: #fff;
      }
    </style>
  </defs>
  <!-- Generator: Adobe Illustrator 28.6.0, SVG Export Plug-In . SVG Version: 1.2.0 Build 709)  -->
  <g>
    <g id="Layer_1">
      <g>
        <path class="cls-1" d="M2538.9,293.3h-530.3V-118h530.3v411.3ZM2153.8,104.5c0-.6-.1-1.1,0-1.5,1.2-3.8,3.5-6.9,6.4-9.7,3.3-3.3,6.8-6.4,9.8-9.9,4.5-5.2,7.6-11.3,9.8-17.8.4-1.2.6-2.4,1.1-3.6,1.5-3.2,3.3-6.3,4.5-9.6,1.6-4.5,2.8-9.1,4.2-13.7,1.2-3.7,2-7.5,1.3-11.4-.2-1-1-2.1-1.9-2.6-.6-.4-2,0-2.7.5-1.5,1.1-2.9,2.5-4.2,3.9-.5.5-.6,1.3-.9,2-.2.5-.1,1.1-.4,1.4-2.1,2.6-4.3,5.1-6.4,7.6-.4.4-.5,1-.8,1.6-.8,1.5-1.6,3.1-2.5,4.6-1.4,2.3-3,4.4-4.3,6.7-1.1,1.9-1.9,3.9-2.8,5.8-2,4-4.3,7.8-6,11.9-2.3,5.6-4.5,11.3-6,17.2-1.6,5.8-4.4,10.7-9,14.4-2.1,1.7-4.5,3-6.9,4.3-.3.2-1.5-.3-1.6-.6-.2-1-.4-2.2,0-3.1,1.8-4.1,3.8-8,5.6-12,1.1-2.5,2.3-5,3.2-7.6,1.9-5.2,3.8-10.4,5.6-15.6.3-.9.7-1.7,1-2.6.9-2.5,1.7-4.9,2.5-7.4.1-.4.3-.7.3-1.1.2-4.9,3.1-8.6,5.6-12.5.4-.6,1.3-.8,2-1.1,4-1.4,8.8-1.8,9.8-7.4,0-.5.8-.9,1-1.4.6-1.2,1.5-2.5,1.4-3.7-.1-2.2-1.6-3.7-3.8-4.2-2-.4-3.8.2-5.2,1.8-.8,1-1.8,1.8-2.6,2.7-.9,1.1-2.2,2.1-2.6,3.4-.9,3.2-3,4.6-6.7,4.6-7,0-13.9,0-20.9,0-5.6,0-11.2-.1-16.7.5-7.9.9-16,1.3-23.6,4.4-5.7,2.3-11.3,4.8-16.9,7.2-.6.3-1.1,1.2-1.3,1.9-.2,1.2,4.2,4.3,5.4,3.9.3,0,.6-.5.7-.8.3-1.8,1.6-2.3,3.1-2.7,1-.3,2-.7,2.8-1.3,1-.7,1.8-1.6,3.3-1.2.9.2,2.2.2,3-.2,1.8-1.1,3.3-2.8,5.2-3.7,1.7-.9,3.6-1.3,5.5-1.6,1.9-.3,4-.3,5.9-.6,1.7-.3,3.3-1.2,5-1.3,2.9-.3,5.8,0,8.7-.2,7.7-.3,15.4-.6,23.1-.9,1.6,0,3.3-.2,4.9,0,1.5.2,2.5,1.3,2,2.9-1,2.8-2.3,5.4-3.5,8.1-.2.5-.3,1.1-.5,1.7-.6,2-1.1,4-1.9,5.9-1.2,3.2-3,6.2-3.9,9.5-1.8,6.6-4.1,13-7.2,19.1-.5,1-.9,2-1.3,3.1-.9,2.1-1.6,4.3-2.7,6.3-1.7,3.3-3.6,6.6-5.4,9.8-1.1,1.8-2.2,3.7-3.5,5.3-1.9,2.2-3.9,4.2-6,6.2-1.8,1.7-3.5,3.9-5.6,4.8-5,2.1-10.3,2.3-15.7,1-3.3-.8-6.3-2.2-9.1-4.2-1.5-1.1-2.3-2.2-1.9-4.1.3-1,.6-1.9.9-2.9-2.1-.9-3.4-.1-4.3,1.5-1.5,2.6-.6,6.1,1.7,8,3.1,2.6,6.7,4,10.6,4.8,1.8.4,3.5,1.3,5.2,1.5,2.4.3,4.9,0,7.4,0,3.6,0,7.1-.9,10.1-2.8,3.1-2,5.8-4.7,8.8-7,1.5-1.2,3.3-2,5-3,1.4-.8,3-1.5,4.3-2.5,1.6-1.2,2.7-3,4.4-4.1,1.7-1.2,3.7-1.9,5.8-2.9.3.6,1.1,1.3,1,2.1,0,1.1-.6,2.1-.9,3.2-.8,3.1-1.5,6.2-2.3,9.8,1.8,0,3.2.4,3.9,0,1.5-1,2.8-2.4,3.9-3.9,1.4-2,2.5-3.8,4.8-5,1.9-.9,3.5-2.4,5.1-3.9,1.7-1.5,2.9-3.6,4.7-4.9,3.5-2.4,7.5-3.8,11.6-5,.2,0,.4,0,.7,0,3-.3,4.1.8,3.1,3.6-.8,2.2-1.8,4.5-3.2,6.3-3.5,4.1-6.2,8.6-8.1,13.6-.9,2.4.5,4.5,3.2,4.3,1.8-.2,3.6-1,5.4-.9,3.4.1,5.9-1.9,8.6-3.2,2.9-1.4,4.2-1.4,5.7,1.3,1.6,2.8,4.7,4,7.8,3.1.8-.2,1.8-.2,2.6-.4,1.8-.3,3.6-.6,5.3-1.1,4.5-1.5,8.9-3.1,13.4-4.6.5-.2,1-.4,1.3-.7,1.5-1.7,2.7-1,3.8.5,2.6,3.4,5.9,4.7,10.1,4,1.1-.2,2.2-.7,3.3-.7,4.5,0,8.2-1.7,11.9-4.2,5.1-3.4,8.2-8.1,10.6-13.4,1.1-2.4,2-2.6,3.6-.6,1.6,2,3.2,2.6,5.3,1.3,3.1-1.9,6.1-4.2,8.8-6.6,2.3-2,3.3-2.5,5.3-1.3-.6,1.2-1.1,2.5-1.8,3.7-2.6,4.3-5.4,8.5-7.7,13-1.2,2.3-1.6,5.1-2.1,7.7-.3,1.9,1.4,4.5,2.7,4.3,3.8-.5,7.6-1.1,11.4-1.9,1.5-.3,2.8-1.3,4.2-1.9,1.9-.8,3.6,0,4,1.9.4,1.6,1.3,2.8,3.1,2.6,2.5-.4,4.9-.8,7.3-1.6,2-.6,4.2-1.3,5.7-2.6,2.1-1.9,3.4-2.2,5.4,0,.4.4,1,.8,1.5.9,5.8.5,11.5,1.3,17.2-.4,4.3-1.3,5.2-2.9,3.5-6.9-1-2.4-2.6-4.6-4.2-6.7-1.9-2.5-2.1-3.6.2-5.9,2.7-2.7,5.5-5.3,8.2-8,1.6-1.6,3.1-3.3,4.7-4.9,1.3-1.3,1.4-3,.3-4-.8-.7-2.5-.6-3.8-.5-1.9.2-3.8.6-5.6,1.1-1,.3-1.9,1-2.7,1.7-.9.8-1.5,2.4-2.5,2.8-4.5,1.9-5.1,6.2-6.6,9.9-1.1,2.6-.6,5.8-3.3,7.8-2.6,2-4.9,4.3-7.6,6.1-1.6,1-2.7,3.3-5.1,2.8-2.9-.6-4.9.7-7,2.4-.6.5-2.3.7-2.5.5-.5-.9-.7-2.1-.7-3.1,0-.7.7-1.3,1.1-1.9,2-3.3,4.6-6.3,5.6-10.3.5-2,1.4-3.9,2.3-5.7,1.2-2.3,1.9-4.8,1.9-7.4,0-1.6-1.4-2.3-2.2-1.6-1.7,1.4-3.4,3.2-4.5,5.2-1.1,2-1.1,4.6-2.1,6.7-1.6,3.7-3.7,7.1-5.4,10.8-1,2.2-2.4,4-4.7,4.7-4.1,1.2-8.2,2.4-12.4,3.4-.8.2-2.2.2-2.6-.3-.5-.8-.9-2.3-.5-3,2.1-4.2,4.3-8.3,6.7-12.3,2.6-4.5,5.6-8.8,8.1-13.3.5-.9.4-3.1-.3-3.7-.9-.8-2.7-.9-4-.6-1.3.3-2.5,1.3-3.6,2.1-1.7,1.3-3.3,2.8-5,3.9-2.3,1.5-4.7,2.8-7.1,4.1-.8.4-2,.9-2.6.6-.6-.3-.7-1.6-.9-2.4-.3-1.3-.1-3.2-.9-3.9-4-3.8-10.6-3.7-12.8,2.2-1.7,4.5-3.2,9.1-4.7,13.7-.4,1.3-.6,2.6-1,3.8-.4,1.1-.8,2.5-1.6,3-1.9,1-4,1.9-6.1,2-2.5.1-5.1-.5-7.6-.9-2.7-.4-4-2.1-3.6-4.8.4-2.6.9-5.2,1.4-7.9.4-2.6.9-5.3,1.2-7.9.2-1.9-1.5-3.9-3-3.6-3,.5-6.2,4.4-6.3,7.5-.1,3-.1,6.1-.7,9.1-.6,3.1-1.7,6.2-5.3,7.3-1.4.4-2.7,1-4,1.6-4.7,2.3-9.8,1.9-14.8,2.3-1.5.1-2.3-.7-2.3-2.3,0-2.2,3-7,5-7.8.6-.2,1.4-.2,1.9-.6,1.9-1.6,3.8-3.3,5.6-5,1.4-1.4,2.7-2.9,4.2-4.2,3.7-3.2,8.5-5.2,11.2-9.6.2-.2.6-.3,1-.4,1.2-.6,2.1-1.7,1.2-2.8-.5-.6-2.2-.9-3-.5-2.3,1.1-4.3,2.6-6.5,3.9-2.9,1.7-5.8,3.3-8.7,4.9-4.1,2.2-8,4.8-10.8,8.6-1.7,2.4-3.4,4.8-5,7.3-1.5,2.4-3.8,3.7-6.4,4.6-2.3.8-4.7,1.4-7,2.1-1,.3-2,.3-3,.4.1-1.2.1-2.4.4-3.5.1-.5.7-.9,1.1-1.4,4.1-4.6,6.9-9.9,8.2-15.9,1.1-5.1-1.9-9.2-7.4-6.8-3.1,1.4-6.3,2.6-9.4,4-.9.4-1.7,1.1-2.2,1.8-.9,1.3-1.6,2.4-3.4,3.3-2.8,1.5-5.2,1-8.1.7ZM2346.7,106.9c2.9.2,5-.4,7.1-2,3.5-2.7,7.2-5.1,10.9-7.6.6-.4,1.5-.3,2.3-.4,0,.7.3,1.5,0,2.2-1.2,4.1-2.4,8.1-3.7,12.1-1,3-2,6-3,9-.7,2.2-1.5,4.4-2.2,6.6-.5,1.6.3,2.9,1.6,3.2,1,.2,2.3-.4,3.4-.9.5-.2.8-1.1,1-1.7,1.4-3.8,4.4-5.8,7.9-7.3,1.3-.5,2.4-1.7,3.4-2.7,1.4-1.3,2.6-2.8,4-4,1.7-1.3,3.7-2.4,5.6-3.5,1.4-.8,3.4.3,3.5,1.8,0,1.1-.2,2.4-.6,3.4-1.1,3-2.4,5.8-3.6,8.8-.5,1.4-1.1,2.8.4,4.1,1.4,1.2,3,2.2,4.9,1.3,3.7-1.7,7.4-3.6,11-5.5,1.2-.6,2.2-1.1,3,.3,1.5,2.8,3,5.6,4.5,8.4,1.1,2.1.2,3.6-2.1,4.2-3.1.7-6.1,1.6-9.2,2.2-4.2.8-8.4,2-12.6,2.2-9.9.5-19.8.5-29.7.7-4.5,0-9.1.1-13.6.2-5.4,0-10.9,0-16.3.3-7.1.3-14.3.6-21.4,1.1-5.2.4-10.3,1.2-15.5,1.6-3.8.3-7.6.3-11.3.6-9.7.9-19.5,1.9-29.2,2.8-4.7.5-9.3.8-13.9,1.4-4.5.6-8.9,1.6-13.4,2.2-2.8.4-5.8,0-8.6.3-4.1.5-8.1,1.3-12.2,1.8-7.1,1-14.3,1.7-21.4,2.8-8.3,1.3-16.5,2.8-24.8,4.3-1.4.2-2.7.6-4.1.9-3.9.9-7.8,1.7-11.6,2.7-2.6.6-5.1,1.5-7.6,2.1-.4.1-1,.2-1.3,0-2.2-1.1-4.2,0-6.3.2-1.9.2-3.9.8-5.7.5-3.4-.6-4.4-.3-5.9,2.7-.6,1.1-1.7,1.8-2.5,2.8-.7.9-1.8,2-1.6,2.8.2,1,1.4,2.2,2.4,2.4,5.4,1.1,10.8,1.3,16.3.8,3.3-.3,6.7-.2,10-.7,5.3-.7,10.5-1.9,15.7-2.7,1.5-.2,3.1,0,4.6-.2,2.8-.4,5.6-1.3,8.4-1.6,9.5-1.2,19-2.3,28.6-3.5,5.6-.7,11.1-1.7,16.7-2.4,4.6-.6,9.3-1.2,13.9-1.7,4-.4,8.1-.8,12.2-1.2,3.6-.3,7.3-.5,10.9-.9,3-.3,5.9-1,8.9-1.4,1.8-.3,3.7-.2,5.5-.4,1-.1,2-.6,3-.7,8.8-.7,17.7-1.4,26.5-2.2,2.2-.2,4.4-.6,6.6-.9,5.5-.7,10.9-1.4,16.4-2,4.5-.5,9.1-.7,13.7-1.2,2.9-.3,5.8-.9,8.7-1.3,2.7-.4,5.4-.9,8.1-1.2,5.4-.6,10.7-1.1,16.1-1.8,3.6-.5,7.1-1.5,10.7-2,3.4-.5,6.9-.5,10.3-1.4,5.5-1.4,11.1-1.7,16.8-1.8,4.9-.1,9.7-.3,14.6-.6,5.8-.4,11.5-.9,17.3-1.3,3.6-.2,7.1,0,10.7-.2,3.9-.1,7.8-.6,11.6-.5,5.1,0,10.2,0,15.2-1.5,2.1-.6,2.6-1.4,2-3.6-.3-.9-.8-1.9-.7-2.8.5-3.2-2.2-4.5-3.8-6.3-.4-.4-1.6-.5-2.3-.3-1.7.5-3.4,1.1-5,1.9-.8.4-1.7,1.2-1.7,1.9,0,.7.8,1.6,1.5,2.2.4.3,1.3-.1,1.9.1,1.2.6,2.9,1.1,3.2,2.1.7,1.8-1.4,1.7-2.3,1.7-5.1.4-10.3.7-15.4,1-1.9,0-3.8,0-5.6,0-1.6,0-3.2.1-4.9,0-1.5,0-2.6-.6-3-2.3-.7-2.8-3.6-4.3-6.5-4.3-2.3,0-4.6-.6-6.8-1.2-2.6-.7-3.7-3.1-5.3-5.1-2.8-3.5-3.9-7.3-2.4-11.6,1.2-3.3,1.8-6.6,1.4-10.1-.3-2.2-1.4-3-3.5-2.4-3.1.9-5,3.3-5,6.6,0,2.2.1,4.5-.2,6.7-.1,1-.9,2.1-1.8,2.7-1.7,1.4-3.6,2.5-5.5,3.7-.7.4-1.5.5-2.3.7-.2-.9-.6-1.7-.6-2.6,0-.8.5-1.5.8-2.3.7-2.3,1.6-4.5,1.8-6.8.5-5-3.6-8.6-8.5-7.3-2.6.7-5.7,1.7-7.3,3.6-1.7,2-3.4,2.1-5.5,2.3-2.2.2-2.3-.8-2-2.3.5-2,1.2-4,1.8-5.9.7-2.3,1.6-4.6,2.2-7,1.1-4.2,2.7-8.1,5.5-11.6,3.8-4.7,7.6-9.5,11.1-14.4,3-4.1,5.1-8.7,6.6-13.7,1.4-4.6,3.2-9.1,4-13.8.9-4.8,2.2-9.6,1.3-14.6-.5-3.2-1.9-4.2-4.9-2.8-1.1.5-2,1.2-3.1,1.7-1.4.7-2.1,1.5-2.2,3.2-.1,2.2-1.2,4.1-2.7,5.9-2.1,2.5-4.3,5.2-5.6,8.1-1.6,3.4-2.2,7.2-3.5,10.8-2.2,6.1-4.7,12.2-7,18.3-.4,1-.7,2.1-.9,3.2-.8,3.5-1.6,7.1-2.5,10.6-.8,3.3-3.7,5-6,7-4,3.5-7.9,7.1-13.2,8.7-2.3.7-3.8,2.7-5.1,5.2ZM2070.6,60.5c-.4-.2-.6-.3-.8-.5-1.9-1.8-2-1.8-3.6.4-.7,1-1.9,1.8-2.3,2.9-.5,1.1-.6,2.6-.3,3.7.2.7,1.4,1.6,2.3,1.7,4.8.3,8-4.9,5.7-9.2,0-.2-.4-.2-.6-.3,0,.5-.2.8-.3,1.4ZM2421.3,91.1c-.2-2-.1-3.8-.6-5.4-.2-.7-1.8-1.4-2.6-1.2-.7.1-1.6,1.2-1.9,2.1-.3.9,3.4,4.2,5.2,4.5Z"/>
        <path d="M2153.8,104.5c2.9.3,5.3.8,8.1-.7,1.8-.9,2.4-1.9,3.4-3.3.5-.8,1.4-1.4,2.2-1.8,3.1-1.4,6.3-2.7,9.4-4,5.5-2.4,8.4,1.7,7.4,6.8-1.3,6-4.1,11.3-8.2,15.9-.4.4-1,.9-1.1,1.4-.3,1.1-.3,2.3-.4,3.5,1-.1,2-.2,3-.4,2.4-.6,4.7-1.3,7-2.1,2.6-.8,4.8-2.2,6.4-4.6,1.6-2.5,3.3-4.9,5-7.3,2.8-3.9,6.7-6.4,10.8-8.6,2.9-1.6,5.8-3.2,8.7-4.9,2.2-1.3,4.2-2.8,6.5-3.9.8-.4,2.5-.1,3,.5.9,1.1,0,2.2-1.2,2.8-.3.2-.8.2-1,.4-2.7,4.4-7.5,6.4-11.2,9.6-1.5,1.3-2.8,2.9-4.2,4.2-1.8,1.7-3.7,3.4-5.6,5-.5.4-1.3.3-1.9.6-2,.8-5,5.6-5,7.8,0,1.6.8,2.4,2.3,2.3,5-.4,10.1,0,14.8-2.3,1.3-.6,2.6-1.2,4-1.6,3.6-1.2,4.7-4.2,5.3-7.3.5-3,.6-6.1.7-9.1.1-3.1,3.3-7,6.3-7.5,1.5-.3,3.2,1.7,3,3.6-.3,2.7-.8,5.3-1.2,7.9-.4,2.6-1,5.2-1.4,7.9-.4,2.7.9,4.3,3.6,4.8,2.5.4,5.1,1.1,7.6.9,2.1-.1,4.2-1,6.1-2,.8-.4,1.2-1.9,1.6-3,.5-1.2.6-2.6,1-3.8,1.5-4.6,3-9.1,4.7-13.7,2.1-5.9,8.8-5.9,12.8-2.2.8.8.6,2.6.9,3.9.2.9.4,2.1.9,2.4.6.3,1.8-.2,2.6-.6,2.4-1.3,4.8-2.6,7.1-4.1,1.8-1.2,3.3-2.7,5-3.9,1.1-.8,2.3-1.8,3.6-2.1,1.3-.3,3.1-.1,4,.6.7.6.8,2.8.3,3.7-2.5,4.5-5.5,8.8-8.1,13.3-2.4,4-4.6,8.1-6.7,12.3-.4.8,0,2.2.5,3,.3.5,1.7.5,2.6.3,4.2-1.1,8.3-2.2,12.4-3.4,2.3-.7,3.7-2.4,4.7-4.7,1.7-3.6,3.8-7.1,5.4-10.8,1-2.1,1-4.7,2.1-6.7,1-2,2.7-3.7,4.5-5.2.8-.7,2.1,0,2.2,1.6,0,2.6-.6,5.1-1.9,7.4-.9,1.8-1.8,3.7-2.3,5.7-1,3.9-3.5,7-5.6,10.3-.4.6-1,1.3-1.1,1.9,0,1.1.2,2.2.7,3.1.1.2,1.8,0,2.5-.5,2.1-1.6,4.2-3,7-2.4,2.4.5,3.5-1.7,5.1-2.8,2.7-1.8,5-4.2,7.6-6.1,2.7-2,2.2-5.2,3.3-7.8,1.5-3.7,2.1-8.1,6.6-9.9,1-.4,1.6-1.9,2.5-2.8.8-.7,1.7-1.4,2.7-1.7,1.8-.5,3.7-.9,5.6-1.1,1.3-.1,3-.2,3.8.5,1.1,1,1,2.7-.3,4-1.6,1.6-3.1,3.3-4.7,4.9-2.7,2.7-5.5,5.3-8.2,8-2.3,2.3-2.1,3.4-.2,5.9,1.6,2.1,3.2,4.3,4.2,6.7,1.7,4,.8,5.6-3.5,6.9-5.7,1.7-11.5.9-17.2.4-.5,0-1.1-.5-1.5-.9-2-2.1-3.3-1.8-5.4,0-1.5,1.3-3.7,2-5.7,2.6-2.4.7-4.9,1.2-7.3,1.6-1.8.3-2.7-1-3.1-2.6-.5-1.9-2.2-2.7-4-1.9-1.4.6-2.7,1.6-4.2,1.9-3.8.8-7.6,1.3-11.4,1.9-1.3.2-3-2.4-2.7-4.3.5-2.6.9-5.4,2.1-7.7,2.3-4.5,5.2-8.6,7.7-13,.7-1.2,1.2-2.5,1.8-3.7-1.9-1.2-3-.7-5.3,1.3-2.8,2.4-5.7,4.7-8.8,6.6-2.1,1.3-3.8.7-5.3-1.3-1.6-2-2.5-1.8-3.6.6-2.4,5.3-5.5,10-10.6,13.4-3.7,2.5-7.4,4.3-11.9,4.2-1.1,0-2.2.5-3.3.7-4.2.7-7.6-.7-10.1-4-1.1-1.5-2.3-2.2-3.8-.5-.3.4-.9.6-1.3.7-4.4,1.6-8.9,3.2-13.4,4.6-1.7.6-3.5.8-5.3,1.1-.9.2-1.8.1-2.6.4-3.1.9-6.2-.3-7.8-3.1-1.6-2.7-2.9-2.7-5.7-1.3-2.7,1.3-5.2,3.3-8.6,3.2-1.8,0-3.6.8-5.4.9-2.6.3-4.1-1.8-3.2-4.3,1.9-5,4.6-9.5,8.1-13.6,1.5-1.8,2.5-4.1,3.2-6.3,1-2.7-.1-3.9-3.1-3.6-.2,0-.5,0-.7,0-4.1,1.2-8.1,2.6-11.6,5-1.8,1.3-3,3.3-4.7,4.9-1.6,1.4-3.2,3-5.1,3.9-2.3,1.1-3.5,3-4.8,5-1,1.5-2.4,2.9-3.9,3.9-.7.5-2,0-3.9,0,.8-3.6,1.5-6.7,2.3-9.8.3-1.1.9-2.1.9-3.2,0-.7-.7-1.5-1-2.1-2.1,1-4.1,1.7-5.8,2.9-1.6,1.1-2.8,2.9-4.4,4.1-1.3,1-2.9,1.7-4.3,2.5-1.7,1-3.5,1.8-5,3-3,2.3-5.6,5-8.8,7-3,1.9-6.5,2.8-10.1,2.8-2.5,0-4.9.2-7.4,0-1.8-.2-3.5-1.1-5.2-1.5-3.9-.8-7.5-2.3-10.6-4.8-2.3-1.9-3.2-5.4-1.7-8,.9-1.6,2.2-2.4,4.3-1.5-.3,1-.6,2-.9,2.9-.5,1.8.4,3,1.9,4.1,2.8,2,5.8,3.4,9.1,4.2,5.4,1.4,10.7,1.1,15.7-1,2.2-.9,3.9-3.1,5.6-4.8,2.1-2,4.1-4,6-6.2,1.4-1.6,2.5-3.4,3.5-5.3,1.9-3.2,3.7-6.5,5.4-9.8,1-2,1.8-4.2,2.7-6.3.4-1,.8-2.1,1.3-3.1,3.1-6.1,5.4-12.5,7.2-19.1.9-3.3,2.6-6.3,3.9-9.5.8-1.9,1.3-3.9,1.9-5.9.2-.6.2-1.2.5-1.7,1.2-2.7,2.5-5.4,3.5-8.1.6-1.5-.4-2.7-2-2.9-1.6-.2-3.3-.1-4.9,0-7.7.3-15.4.6-23.1.9-2.9,0-5.8,0-8.7.2-1.7.2-3.3,1.1-5,1.3-1.9.3-4,.2-5.9.6-1.9.3-3.8.7-5.5,1.6-1.9,1-3.4,2.6-5.2,3.7-.8.5-2.1.5-3,.2-1.5-.4-2.3.5-3.3,1.2-.8.6-1.8,1-2.8,1.3-1.5.4-2.8.9-3.1,2.7,0,.3-.4.7-.7.8-1.2.4-5.6-2.7-5.4-3.9.1-.7.7-1.7,1.3-1.9,5.6-2.5,11.3-4.9,16.9-7.2,7.5-3.1,15.6-3.5,23.6-4.4,5.5-.6,11.1-.5,16.7-.5,7,0,13.9,0,20.9,0,3.7,0,5.8-1.4,6.7-4.6.4-1.3,1.6-2.3,2.6-3.4.8-.9,1.8-1.8,2.6-2.7,1.4-1.6,3.1-2.3,5.2-1.8,2.2.5,3.7,2,3.8,4.2,0,1.2-.9,2.5-1.4,3.7-.2.5-.9.9-1,1.4-1,5.6-5.7,6-9.8,7.4-.7.3-1.7.5-2,1.1-2.5,3.9-5.3,7.6-5.6,12.5,0,.4-.2.7-.3,1.1-.8,2.5-1.7,4.9-2.5,7.4-.3.9-.7,1.7-1,2.6-1.9,5.2-3.7,10.5-5.6,15.6-1,2.6-2.1,5.1-3.2,7.6-1.9,4-3.9,8-5.6,12-.4.9-.2,2.1,0,3.1,0,.3,1.3.8,1.6.6,2.4-1.3,4.8-2.6,6.9-4.3,4.6-3.8,7.4-8.6,9-14.4,1.6-5.8,3.8-11.6,6-17.2,1.7-4.1,4-7.9,6-11.9,1-1.9,1.8-4,2.8-5.8,1.3-2.3,2.9-4.4,4.3-6.7.9-1.5,1.7-3.1,2.5-4.6.3-.5.4-1.1.8-1.6,2.1-2.5,4.3-5,6.4-7.6.3-.3.2-1,.4-1.4.3-.7.4-1.5.9-2,1.3-1.4,2.7-2.8,4.2-3.9.7-.5,2.1-.8,2.7-.5.9.5,1.8,1.6,1.9,2.6.6,3.9-.2,7.7-1.3,11.4-1.4,4.6-2.6,9.2-4.2,13.7-1.2,3.3-3.1,6.4-4.5,9.6-.5,1.1-.7,2.4-1.1,3.6-2.2,6.5-5.3,12.6-9.8,17.8-3,3.5-6.5,6.7-9.8,9.9-2.8,2.8-5.1,5.9-6.4,9.7-.1.4,0,.9,0,1.5ZM2159.3,88.3c-.1-.3-.2-.6-.3-.9,2.7-2.3,6.1-4.1,8.1-6.9,3.5-5,7-10.2,8.7-16.2.5-1.8,1.3-3.6,2.1-5.4,1.4-3.2,3-6.3,4.2-9.5,1.1-2.8,1.9-5.8,2.5-8.8.2-1.2-.1-3.4-.8-3.7-1.7-.7-2.7.9-3.4,2.4,0,.2-.1.4-.2.6-.8,1.8-1.5,3.6-2.5,5.3-2.5,4.4-5.1,8.8-7.6,13.2-.6,1-1.1,2.1-1.6,3.2-2,4.6-3.9,9.2-5.8,13.9-1.3,3.1-2.5,6.3-3.5,9.5-.3.9.2,2.1.3,3.2ZM2317.5,123.9c4-.6,7.8-1.1,11.7-1.7.6-.1,1.4-.9,1.7-1.5.6-2-3.2-6.1-5.3-5.8-.5,0-1,.4-1.4.7-1.3.9-2.5,1.8-3.8,2.7-1.8,1.3-3.8,2.5-2.9,5.7Z"/>
        <path d="M2346.7,106.9c1.3-2.5,2.8-4.5,5.1-5.2,5.4-1.5,9.2-5.2,13.2-8.7,2.3-2,5.1-3.7,6-7,.9-3.5,1.6-7.1,2.5-10.6.3-1.1.5-2.2.9-3.2,2.3-6.1,4.8-12.1,7-18.3,1.3-3.5,1.9-7.4,3.5-10.8,1.4-2.9,3.5-5.6,5.6-8.1,1.5-1.8,2.6-3.7,2.7-5.9.1-1.7.8-2.6,2.2-3.2,1.1-.5,2-1.2,3.1-1.7,2.9-1.4,4.3-.4,4.9,2.8.8,5-.5,9.7-1.3,14.6-.9,4.8-2.7,9.2-4,13.8-1.5,5-3.6,9.5-6.6,13.7-3.5,4.9-7.3,9.6-11.1,14.4-2.7,3.4-4.3,7.4-5.5,11.6-.6,2.4-1.5,4.7-2.2,7-.6,2-1.3,3.9-1.8,5.9-.4,1.5-.2,2.6,2,2.3,2.2-.2,3.8-.3,5.5-2.3,1.7-1.9,4.7-2.9,7.3-3.6,4.9-1.3,9.1,2.4,8.5,7.3-.3,2.3-1.2,4.5-1.8,6.8-.2.8-.7,1.5-.8,2.3,0,.9.4,1.7.6,2.6.8-.2,1.6-.3,2.3-.7,1.9-1.1,3.8-2.3,5.5-3.7.8-.7,1.6-1.7,1.8-2.7.3-2.2.1-4.4.2-6.7,0-3.3,1.9-5.7,5-6.6,2.1-.6,3.2.2,3.5,2.4.4,3.5-.2,6.8-1.4,10.1-1.5,4.3-.5,8.1,2.4,11.6,1.6,2,2.7,4.3,5.3,5.1,2.2.6,4.6,1.3,6.8,1.2,2.9,0,5.8,1.5,6.5,4.3.4,1.8,1.5,2.3,3,2.3,1.6,0,3.2,0,4.9,0,1.9,0,3.8.1,5.6,0,5.1-.3,10.3-.5,15.4-1,.9,0,3,0,2.3-1.7-.4-1-2-1.5-3.2-2.1-.5-.3-1.5.2-1.9-.1-.7-.5-1.5-1.5-1.5-2.2,0-.7,1-1.6,1.7-1.9,1.6-.8,3.3-1.4,5-1.9.7-.2,1.9-.2,2.3.3,1.6,1.8,4.3,3.1,3.8,6.3-.1.9.4,1.9.7,2.8.6,2.2.1,3-2,3.6-5,1.5-10,1.6-15.2,1.5-3.9,0-7.8.4-11.6.5-3.6.1-7.1,0-10.7.2-5.8.3-11.5.9-17.3,1.3-4.9.3-9.7.5-14.6.6-5.7.1-11.2.4-16.8,1.8-3.3.8-6.9.8-10.3,1.4-3.6.6-7.1,1.5-10.7,2-5.3.7-10.7,1.2-16.1,1.8-2.7.3-5.4.8-8.1,1.2-2.9.5-5.8,1-8.7,1.3-4.5.5-9.1.7-13.7,1.2-5.5.6-10.9,1.3-16.4,2-2.2.3-4.4.7-6.6.9-8.8.8-17.7,1.4-26.5,2.2-1,0-2,.5-3,.7-1.8.2-3.7.2-5.5.4-3,.4-5.9,1.1-8.9,1.4-3.6.4-7.2.6-10.9.9-4.1.4-8.1.8-12.2,1.2-4.6.5-9.3,1-13.9,1.7-5.6.7-11.1,1.7-16.7,2.4-9.5,1.2-19.1,2.3-28.6,3.5-2.8.4-5.6,1.2-8.4,1.6-1.5.2-3.1,0-4.6.2-5.2.8-10.4,2-15.7,2.7-3.3.5-6.7.3-10,.7-5.5.5-10.9.4-16.3-.8-1-.2-2.2-1.5-2.4-2.4-.2-.8.9-1.9,1.6-2.8.8-1,1.9-1.7,2.5-2.8,1.5-3,2.5-3.3,5.9-2.7,1.8.3,3.8-.3,5.7-.5,2.1-.2,4.1-1.3,6.3-.2.3.2.9.1,1.3,0,2.6-.7,5.1-1.5,7.6-2.1,3.9-1,7.7-1.8,11.6-2.7,1.4-.3,2.7-.6,4.1-.9,8.2-1.5,16.5-3,24.8-4.3,7.1-1.1,14.3-1.9,21.4-2.8,4.1-.6,8.1-1.4,12.2-1.8,2.8-.3,5.8,0,8.6-.3,4.5-.6,8.9-1.6,13.4-2.2,4.6-.6,9.3-1,13.9-1.4,9.7-.9,19.5-1.9,29.2-2.8,3.8-.3,7.6-.3,11.3-.6,5.2-.4,10.3-1.2,15.5-1.6,7.1-.5,14.3-.8,21.4-1.1,5.4-.2,10.9-.2,16.3-.3,4.5,0,9.1-.1,13.6-.2,9.9-.2,19.8-.2,29.7-.7,4.2-.2,8.4-1.3,12.6-2.2,3.1-.6,6.1-1.5,9.2-2.2,2.3-.5,3.2-2,2.1-4.2-1.4-2.8-2.9-5.6-4.5-8.4-.8-1.4-1.8-.9-3-.3-3.6,1.9-7.3,3.8-11,5.5-1.9.9-3.4,0-4.9-1.3-1.5-1.3-.9-2.7-.4-4.1,1.1-2.9,2.5-5.8,3.6-8.8.4-1.1.6-2.3.6-3.4,0-1.6-2.1-2.6-3.5-1.8-1.9,1.1-3.9,2.1-5.6,3.5-1.5,1.1-2.7,2.7-4,4-1.1,1-2.1,2.2-3.4,2.7-3.6,1.5-6.5,3.5-7.9,7.3-.2.6-.5,1.4-1,1.7-1.1.5-2.4,1.1-3.4.9-1.3-.3-2.1-1.6-1.6-3.2.7-2.2,1.5-4.4,2.2-6.6,1-3,2.1-6,3-9,1.3-4,2.5-8.1,3.7-12.1.2-.7,0-1.5,0-2.2-.8.1-1.7,0-2.3.4-3.7,2.4-7.4,4.9-10.9,7.6-2,1.5-4.1,2.2-7.1,2ZM2336,150.1c2.1,0,4.5.2,6.8,0,2.3-.2,4.5-.8,6.8-1.4.5-.1.8-.8,1.2-1.3-.5-.3-.9-.7-1.4-.8-1.4-.3-2.8-.7-4.1-.7-3.4,0-6.8.2-10.2.3-2.4,0-4.9,0-7.3,0-3.8.2-7.7.4-11.5.6-4.8.2-9.7-.2-14.5.9-3.3.8-6.8.6-10.2.8-4.2.2-8.4.3-12.7.6-1.8,0-3.5.4-5.3.6-1.4.2-2.8.6-4.2.7-4.7.4-9.4.4-14,1-8.2,1-16.4,2.2-24.6,3.3-6,.7-12.1,1.3-18.2,1.9-3,.3-6.1.5-9.1,1-4.6.6-9.2,1.4-13.8,2.1-4.8.7-9.6,1.1-14.3,1.9-6.5,1.1-12.9,2.8-19.4,3.8-10.7,1.8-21.5,3.2-32.2,5-1.9.3-3.6,1.8-5.3,3-.8.6-.9,1.7.5,1.9,1.4.2,2.8.2,4.2.1,4.5-.3,9-.6,13.5-1.1,7-.8,14-1.8,20.9-2.8,4.4-.6,8.7-1.4,13.1-2,3.6-.5,7.3-.7,10.9-1.2,5.8-.8,11.5-1.7,17.3-2.4,7.7-1,15.3-1.7,23-2.7,4.2-.5,8.4-1.3,12.6-1.8,4.6-.5,9.3-.7,13.9-1.2,7.2-.7,14.4-1.5,21.6-2.2,5.2-.5,10.3-.9,15.5-1.4,6-.6,12.1-1.3,18.1-2,5.3-.6,10.6-1.3,15.9-2,5.3-.7,10.7-1.6,16.3-2.4ZM2379.4,77.7c.9-.5,1.7-.8,2.1-1.3,1.5-2,3-4,4.4-6.1,1.5-2.2,2.8-4.5,4.2-6.8.4-.7.7-1.5,1-2.2,1.7-3.9,3.6-7.7,5-11.7,1-2.9,1.5-5.9,2.2-8.9.4-1.8.6-3.6.6-5.4,0-1.3-2.8-3.1-3.5-2.3-1.2,1.4-2.9,2.2-3,4.5,0,1.5-1.2,3-1.9,4.4-.5,1.1-1.2,2.1-1.4,3.2-.8,3.8-2.5,7.3-3.3,11.1-.8,4.1-3,8-4.5,12-1,2.8-2.6,5.6-1.8,9.5Z"/>
        <path d="M2070.6,60.5c.1-.5.2-.9.3-1.4.3.1.5.2.6.3,2.3,4.3-.9,9.5-5.7,9.2-.8,0-2.1-.9-2.3-1.7-.3-1.2-.1-2.6.3-3.7.5-1.1,1.6-1.9,2.3-2.9,1.6-2.2,1.7-2.2,3.6-.4.2.2.5.3.8.5Z"/>
        <path d="M2421.3,91.1c-1.8-.3-5.5-3.6-5.2-4.5.3-.9,1.1-2,1.9-2.1.8-.1,2.4.6,2.6,1.2.5,1.6.5,3.4.6,5.4Z"/>
        <path class="cls-1" d="M2159.3,88.3c-.1-1.1-.6-2.3-.3-3.2,1-3.2,2.2-6.4,3.5-9.5,1.9-4.6,3.9-9.2,5.8-13.9.5-1.1,1-2.2,1.6-3.2,2.5-4.4,5.1-8.8,7.6-13.2,1-1.7,1.7-3.5,2.5-5.3,0-.2.2-.4.2-.6.6-1.5,1.7-3,3.4-2.4.7.3,1,2.5.8,3.7-.6,3-1.4,5.9-2.5,8.8-1.2,3.2-2.8,6.3-4.2,9.5-.8,1.8-1.5,3.5-2.1,5.4-1.7,6.1-5.2,11.2-8.7,16.2-2,2.8-5.4,4.6-8.1,6.9.1.3.2.6.3.9Z"/>
        <path class="cls-1" d="M2317.5,123.9c-.8-3.2,1.1-4.4,2.9-5.7,1.3-.9,2.5-1.8,3.8-2.7.4-.3.9-.6,1.4-.7,2.1-.3,5.9,3.9,5.3,5.8-.2.6-1,1.4-1.7,1.5-3.8.7-7.7,1.2-11.7,1.7Z"/>
        <path class="cls-1" d="M2336,150.1c-5.7.8-11,1.7-16.3,2.4-5.3.7-10.6,1.4-15.9,2-6,.7-12.1,1.4-18.1,2-5.2.5-10.3.9-15.5,1.4-7.2.7-14.4,1.5-21.6,2.2-4.6.4-9.3.7-13.9,1.2-4.2.5-8.4,1.3-12.6,1.8-7.7.9-15.3,1.7-23,2.7-5.8.7-11.5,1.7-17.3,2.4-3.6.5-7.3.7-10.9,1.2-4.4.6-8.7,1.4-13.1,2-7,1-13.9,2-20.9,2.8-4.5.5-9,.8-13.5,1.1-1.4,0-2.8,0-4.2-.1-1.4-.2-1.3-1.3-.5-1.9,1.6-1.2,3.4-2.7,5.3-3,10.7-1.8,21.5-3.2,32.2-5,6.5-1.1,12.9-2.7,19.4-3.8,4.7-.8,9.5-1.2,14.3-1.9,4.6-.6,9.2-1.4,13.8-2.1,3-.4,6.1-.6,9.1-1,6.1-.6,12.1-1.2,18.2-1.9,8.2-1,16.4-2.3,24.6-3.3,4.6-.5,9.3-.6,14-1,1.4-.1,2.8-.5,4.2-.7,1.7-.3,3.5-.5,5.3-.6,4.2-.2,8.4-.3,12.7-.6,3.4-.2,6.9,0,10.2-.8,4.8-1.1,9.7-.6,14.5-.9,3.8-.2,7.7-.5,11.5-.6,2.4-.1,4.9,0,7.3,0,3.4,0,6.8-.3,10.2-.3,1.4,0,2.8.4,4.1.7.5.1,1,.5,1.4.8-.4.4-.7,1.2-1.2,1.3-2.2.6-4.5,1.1-6.8,1.4-2.4.2-4.7,0-6.8,0Z"/>
        <path class="cls-1" d="M2379.4,77.7c-.7-3.9.8-6.6,1.8-9.5,1.5-4,3.7-7.9,4.5-12,.8-3.8,2.4-7.3,3.3-11.1.2-1.1.9-2.2,1.4-3.2.7-1.5,1.9-2.9,1.9-4.4,0-2.3,1.9-3.2,3-4.5.7-.8,3.5,1,3.5,2.3,0,1.8-.2,3.6-.6,5.4-.6,3-1.1,6.1-2.2,8.9-1.4,4-3.3,7.8-5,11.7-.3.7-.6,1.5-1,2.2-1.4,2.3-2.7,4.5-4.2,6.8-1.4,2.1-2.8,4.1-4.4,6.1-.4.5-1.2.8-2.1,1.3Z"/>
      </g>
      <path d="M2869.3,73.2c7.7-15.2,25.3-21.4,41.2-22.6s39.2,2.5,58.6-1.3c4.9-1,9.8-2.5,14.3-4.7s4.4-2.1,6-4,2.1-3.8.8-5.7-1.3-1-2.1-.5c-9.1,6.1-16.6,14.4-21.7,24.2s-4.7,11.3-6.5,17.1-3.8,12.2-6.2,18.1c-4.8,11.7-10.6,22.9-16.6,34-2.6,4.9-5.7,9.3-10.8,11.9s-9.8,3.2-14.8,3.4-5.9,0-8.8-.2-6.8-.7-9.6-2.4-4.4-4.1-3.9-7,2.9-4.5,5.3-3.8,2.6-2.3.8-2.9-5.1.1-6.9,1.9-2.6,4.6-2.1,7.2c1.3,6.2,7.7,8.9,13.3,9.6,10.5,1.4,23.2,1.1,31.9-5.7s7.6-9.6,10.5-15c3.2-6.1,6.4-12.2,9.3-18.4s5.7-12.5,8-18.9c2.3-6.4,3.9-12.9,6.2-19.3,4.6-12.7,12.9-23.8,24.1-31.3l-2.1-.5c2,2.8-6.8,6.1-8.4,6.8-4.1,1.6-8.4,2.8-12.7,3.5-9,1.6-18.3,1.4-27.4,1.1-18.1-.7-37.1-2.1-53.9,6.3-7.7,3.9-14.5,9.8-18.5,17.6s1.7,3.2,2.6,1.5h0Z"/>
      <path d="M2942.3,130c13.7-8.5,26-19.3,36.4-31.7,10.3-12.4,18.7-26.3,24.7-41.2,3.4-8.4,6.1-17.2,7.9-26.1s-.4-1.9-1.4-1.9c-3.6,0-6.3,2.5-8.3,5.2s-4.5,6.5-6.5,9.8c-4.3,6.9-8.3,14-11.9,21.3-7.1,14.5-12.8,29.6-16.9,45.2s-4.1,17.9-5.4,26.9,1.8,2.7,2.7,1.2c6.9-11.3,17.1-20.5,29-26.3s3-1.4,4.6-2,3.2-1.3,3.6.3-.1,2.9-.5,4.1-.8,2.4-1.3,3.6c-2.3,4.9-5.9,9-8.9,13.5s-5.7,10.2-4.5,16.1,1.1,1.2,1.8,1c10.1-2.6,19.2-7.9,27.3-14.3s15.2-14.1,22.4-21.6c4.1-4.3,8.5-8.5,14-10.8l-1.5-2.5c-10.6,11.9-28.1,16.5-36.1,31-.9,1.6-1.6,3.3-2.2,5.1s-1,3.7-.7,5.4c.7,3.9,6.1,4.6,9.3,4.9,7.7.9,15.7-1.5,21.7-6.5s10.4-14.2,10.2-22.8-2.5-2-2.9-.4c-1.5,5.1-2.3,10.9-.2,15.9s8.3,7.8,14.1,8.4,12.5.2,17.8-2.9,7.5-7.3,9.7-12.1,4.2-11.4,7.8-16.1l-2.4-.3c1.7,3.2,2.8,6.7,3.4,10.3s.8,1.1,1.4,1.1c4.6.2,7.9-3.5,10.5-6.9s6.5-8.8,10.6-5.9c4.2,3,1.5,8.9-1,11.9s-7.5,6.7-10.6,10.7-4.5,8.3-2.9,12.8,5.6,6.9,10.2,5.9,4.6-1.6,6.8-2.6,3.8-2,5.7-3.2c3.7-2.4,7.2-5.3,10.2-8.5,6.8-7.3,11.7-16.4,13.6-26.2s-2-2.8-2.7-1.2c-3.7,8.5-7.3,17-11,25.5s-1.9,4.3-2.8,6.4-1.2,3.1-1,4.8,1,3.1,2.6,3.8,3.4.2,5-.5c3.6-1.6,7-3.7,10.3-5.7s6.7-4.3,9.9-6.6c6.3-4.6,12.3-9.8,17.9-15.4s6.1-6.4,8.9-9.8,5.4-7.3,4.2-11.8-.8-1-1.4-1.1c-4.9-.5-9.1,2.6-12.2,6.1s-6.7,8.4-8.7,13.1-2.3,9.9,0,14.5,2.9,3.8,4.9,5.4,3.4,2.9,3.1,5.2-1.3,1.6-2.5,1.6-3.1-.3-4.7-.5c-3.6-.5-7.1-1.1-10.6-1.9s-2.7,2.5-.8,2.9c3.1.7,6.2,1.2,9.3,1.7s3,.4,4.5.6,2.7.4,4.1.1c2.3-.5,3.6-2.4,3.7-4.7s-1-4.3-2.5-5.8-4-3-5.3-5.1-1.8-4.5-1.7-6.9c.2-5.5,3.4-10.3,6.6-14.6s7.2-9.3,12.9-8.7l-1.4-1.1c.9,3.5-1.8,6.8-3.9,9.4s-4.6,5.4-7.1,7.9c-4.9,5.1-10.2,9.9-15.9,14.2s-11.3,8.1-17.4,11.5-3,1.7-4.5,2.4-3.3,1.7-4,.2.2-2.8.6-3.8c.8-2,1.7-4,2.6-5.9,3.7-8.6,7.4-17.2,11.1-25.8l-2.7-1.2c-3.4,16.9-15.9,32-32.2,37.8s-4.5,1.2-6.5-.4-2.3-3-2.5-4.8c-.6-4.7,3-8.9,6.2-11.9s7.7-6.5,9.9-11,1.8-8.9-1.7-11.8-9.6-.6-12.7,2.9-5.5,9.1-10.6,8.9l1.4,1.1c-.6-3.9-1.8-7.6-3.7-11s-1.8-1.1-2.4-.3c-3,3.9-4.9,8.5-6.7,13s-3.6,8.9-7,12.3-9.5,5.2-14.9,5.2-11.7-.3-14.9-4.9-2.2-10.9-.7-15.8l-2.9-.4c.2,6.9-2.4,13.7-7.2,18.7s-11.9,7.9-18.9,7.8-3.4-.2-5.1-.6-3.7-.6-4-2.1.5-3.5,1-4.9,1.3-3,2.1-4.5c3.6-6,9.3-10.4,15-14.2s14.4-8.9,20.1-15.2,0-3.1-1.5-2.5c-9.8,4.1-16.4,13-23.6,20.3s-15,14.4-24,19.6-10.5,5.3-16.1,6.8l1.8,1c-1.1-5.4,1.8-10.3,4.7-14.6s7-9.2,9.2-14.6,2.1-6.2,1-8.8-5.9-2.1-8.7-1c-6.5,2.7-12.6,6.4-18.1,10.9s-11.5,11.2-15.6,18l2.7,1.2c2.2-15.5,5.9-30.7,11.1-45.4,5.2-14.8,11.8-29,19.8-42.4s4.5-7.4,6.9-11,4.4-7.5,8.3-7.4l-1.4-1.9c-3.1,15.5-8.8,30.5-16.7,44.2-7.9,13.7-17.9,26.2-29.6,36.9s-13.7,11.4-21.3,16.1c-1.6,1-.1,3.6,1.5,2.6h0Z"/>
      <path d="M3193.4,127c30-15.1,57.4-39.4,65.2-73.3,2.1-9.3,2.5-18.8,1.1-28.2s-1.5-1.3-2.2-.9c-13.6,8-22.4,21.8-27.7,36.4-3.2,8.7-5.3,17.6-7.2,26.6s-4,18.4-6.3,27.6c-2.6,10.6-5.4,21.2-8.5,31.6s2.2,2.6,2.9.8c5.3-14.5,19.9-24.5,35.3-24.3l-1.4-1.1c1.8,8.1.9,16.6-2.6,24.1s.3,2.8,1.7,2.2c12.9-5.3,21.7-18.1,21.9-32.1,0-1.5-2-2-2.8-.8-4.5,7.5-3.3,16.9.8,24.3s12.4,14,19.8,19.5l.4-2.7c-11.7,4.5-24.2,5.9-36.5,7.4s-26.1,3.2-39.2,4.7c-26.1,3.2-52.3,6.3-78.4,9.5-52,6.3-104,12.6-156,18.9s-26.1,3.2-39.2,4.7-6.3,1-9.4,1.1-4.4-1.5-4.1-4.3c.6-5.6,7.6-6.3,12-6.9,26-3.4,51.9-6.7,77.9-9.9,51.8-6.4,103.7-12.1,155.8-16,52-3.9,104.1-5.8,156.2-4.7,6.4.1,12.8.3,19.2.6s1.9-2.9,0-3c-53.6-2-107.3-.5-160.8,3.1-53.6,3.6-107.1,9.3-160.4,15.8s-53.1,6.6-79.6,10-24.4.8-23.3,12.4c.5,4.9,4.8,6.1,9,5.6,6.7-.8,13.3-1.6,20-2.4,53.7-6.5,107.3-13,161-19.5s53.4-6.5,80.1-9.7,26.7-3.2,40-4.8c12.8-1.5,25.7-2.7,38.4-5s12.2-2.6,18.1-4.8,1.4-1.9.4-2.7c-6.7-4.9-13.6-10.1-18-17.3s-5.6-15.4-1.4-22.4l-2.8-.8c-.2,12.5-8.1,24.4-19.7,29.2l1.7,2.2c3.8-8.3,4.8-17.5,2.9-26.4s-.8-1.1-1.4-1.1c-16.7-.2-32.5,10.8-38.2,26.5l2.9.8c5.1-17.8,9.7-35.8,13.6-53.9s7.1-33.8,16.4-48.4c4.7-7.3,10.8-13.7,18.3-18.1l-2.2-.9c2.5,16.5-1.4,33.5-9.3,48.1-7.7,14.4-19.3,26.4-32.4,36-7.3,5.3-15.1,10-23.2,14-1.7.9-.2,3.5,1.5,2.6h0Z"/>
      <path d="M3279.5,100.3c.5.8,1,1.7,1.5,2.6s.1.2.2.4c0,0,0,0,0,.1,0,.1,0,0,0-.1.1.2.2.5.3.7.2.5.3.9.5,1.4.2.8,1.1,1.3,1.8,1s1.3-1,1-1.8c-.6-2.1-1.5-4.1-2.7-5.9s-1.3-1-2.1-.5-1,1.3-.5,2.1h0Z"/>
      <path d="M752.1,379.1c3.8,3,9.6.3,16-1.1,9.7-2.6,20.3-3,29-8.4,11-7.1,15.4-21.3,21.5-32.7,2.2-4.3,4.4-8.6,6.4-13,4.5-9.4,6.2-19.7,12.3-27.9,3.5-4.8,11.5-13.4,16.6-6.5,7.4,16-16,58.2-25.2,72.6-1.8,3.7-6.3,10.5-2.2,13.7,2.8,1.8,8.9-1.3,15-3.2,3.1-1,6.2-1.7,9.3-2.4,15.1-3.6,28.2-15.3,39-26.6,8.5-9.6,10.5-22.6,15.1-34.1,3.7-12.3,13.4-19.7,22.3-27.8,9.2-9.4,24.5-13.6,37.5-12,11,2.8,6.9,15,.8,20.9-9.9,11.3-20.8,21.7-31.5,32.3-10.2,9.6-8.7,17.9-.2,28.8,17.9,22.8,10,37.5-18.5,39.3-12.8,1-26.5,3.8-38.8-.3-5.1-1.7-10.3-4.4-15.8-3.8-11.1,2.1-20.5,10.1-31.8,12.3-7.3,2.1-15.4,3.1-21-.9-4.8-3.2-8.8-8.5-15-8.6-15.1.7-50.5,20.5-59.6-.2-6.2-19.4,10.3-43,20.1-59.3,2.3-3.5,12.9-18.8,5.3-18.5-9,3.1-15.7,11-23.7,16-8,6-16.2,8.8-24.5,4.3-3.3-1.4-7-2.8-10.3-.9-5.6,3.6-8.2,12.1-12.1,17.6-15.8,25.6-45.9,41.5-75.6,40.7-10.8.3-20.5-5-29-10.8-5.5-3.2-11.7-2.8-17.5-.7-20.7,6.4-39.9,17.1-61.6,18.6-28,4.6-26.7-17.6-44.3-13.2-11,4.5-21.4,9.6-33.4,11.1-7.1,1-16.4,2.1-21.5-3.8-9.5-14.8,15.5-44.9,24.4-56.4,11.5-15.3,7.3-28.9-13-20.5-14.8,5-26.1,14.8-37.1,25.2-9.1,7.9-20.5,13.6-27.8,23.1-4.3,5.3-7.5,12.1-13.8,15.3-5.4,2.9-12.3,1.5-14.7-4.1-3.8-9.2,2.3-19.9,3.1-29.6,0-9.7-12.2-3-16.4.2-6.3,4.2-11,10.8-17.6,14.5-6.2,3.6-13.3,5.3-19.2,9.3-3.9,2.6-7.3,5.9-10.8,9.2-27.1,26.5-47.3,31.6-84.4,26.2-20.7-5.9-56.9-18.7-49.6-46.3,1.5-5.6,8.4-9.6,12.4-5.8,4.5,4.4,1.1,12.1,5,17.3,5.7,7.3,15,10.6,23.5,13.6,34.2,12.2,65.4-2.9,86.7-30.4,5.9-7,10.6-14.7,15-22.7,15.6-26.9,27.9-55.2,39.3-84.1,6.1-12.6,9.9-26.1,14.1-39.3,8.2-18.4,15.2-37.2,21.6-56.4,1.8-5.7,5.6-13.5,3.5-18.9-1.7-4.6-8.5-5.6-13.3-5.6-39.3,0-78.1,3.6-117.4,6.2-2.8.2-9.4,1.1-18.1,2.9-10,2-21.3,4.4-34.5,10.3-7.4,3.3-12.5,6.5-21.2,11.8-11.6,7.2-18.1,12.4-19.8,13.8-5.9,4.8-9.9,8.8-10.9,9.8-6.6,6.7-6.6,8-10.4,11.5-8.2,7.5-21.1,12.8-25.1,9.1-2.4-2.3-1-7.3.2-11.9.8-2.9,3.7-12.4,19.4-28.3,5.2-5.3,8.9-9,14.7-13.2,9.2-6.5,17.8-8.4,25.4-12.2,19.9-9.8,41-16.5,63-19,10.3-1.5,20.6-3.4,30.9-4.9,16.2-2.5,32.5-1.8,48.8-1.6,19.1,0,38-.2,57.2.3,10.4-.2,22.8,1.9,31.1-5.5,3.5-3.1,5.8-7.3,8.4-11.1,5.6-8.2,13.7-15.6,22.5-20.7,8.4-5,17.8-1,21,7.5,5,13.8-5.3,30.5-16.2,38.7-7.7,5.5-18.8,6.6-25.9,12.9-5.4,4.6-8.9,11.1-11.9,17.6-8.6,20.6-12.7,42.9-21.2,63.6-12.4,33.1-24.4,66.2-38.6,98.4-1.8,5.1-1.2,7.9,3.2,7,17-5.4,31-20.7,38.6-36.6,5.7-12.8,8.5-26.8,13.3-40,8.3-24.6,21.5-47.4,32.5-71.1,5.8-12.4,11.5-24.9,19.6-36,7-10.5,12.9-21.7,21.3-31.3,9.1-11.5,15.8-25.9,27.6-34.9,9.1-6.2,18.2,2,18.3,12,1.1,22.1-7.7,43.1-13.3,64.3-11,30.2-24.6,59.2-38.6,88.3-3,5.7-6.4,11.1-10.3,16.2-10.9,13.7-23.5,25.6-36,37.9-3.3,3.3-6.4,6.7-9.2,10.4-3.9,5.5-8.6,11.4-7.4,16.5,4.7,8.9,19.7-.3,25.2-5,9.6-7.6,20.5-14.4,31.7-19.3,23-10.3,42.7-1.1,34.4,26.5-4,13.8-11.6,25.8-19.3,37.6-2.5,4.3-7.5,10.3-4.6,15.2,3.5,3.7,11,1.2,17.9-.7,9.5-2.6,18.2-7.4,24.2-15.5,12.5-17.6,25.3-35.9,43.9-47.5,15.2-8.9,31.6-15.8,45.9-26.3,4.9-3.3,11.9-7.5,17.5-4.8,11.4,8.2-10.2,20.8-15.6,26.6-16.1,13.9-30.1,30.3-47.4,42.3-5,3.5-10.2,6.8-14.8,10.8-10.8,9-16.6,23.2,3.1,22.9,20.8-.8,42.4-5.8,58.1-19.6,12.4-13.5,4.5-34.8,11.6-50.4,5.9-12.9,26-24.3,28-2.9.2,14-4.3,27.9-5.8,41.6-.6,5.6-.3,11.9,3.5,16.3,7.5,8.3,21.3,7.4,31.9,6,10.3-1.2,18.6-8.4,21.1-18.5,5.6-17.1,9.9-35.6,17.8-51.8,7.5-15,31.1-19.7,41.1-5.3,4.7,5.9,3.9,19.7,13.8,16.4,19-6,35.6-32.7,56.3-29.7,16.5,4.1,5.2,21.5-.5,30.7-7.1,8.6-15.5,20.6-22.7,36.1-5.9,12.7-9.4,24.4-11.6,34ZM456.2,110.2c-6.8-4.6-18.8,25.5-22.3,30.7-6.7,16-61.8,113.2-50.2,120,3.9,1.6,8.7-4.9,11.3-7.9,18.8-22.1,33-47.6,41.3-75.3,7.6-17,17.4-33.5,19.6-52.5.6-4.4,2.6-11.4.5-14.8l-.2-.2ZM878.9,374.9c1.3,1.3,5.5.8,8.8,1.1,8.6,0,17.7-2.1,25.9-4.9,7.4-4.3-2.8-16.3-7.7-18.5-3.7-1.3-6.8,1.9-9.6,3.8-5,3.4-12.2,5.4-15.5,11.2-1.1,2-3.3,4.8-2.2,7l.2.2Z"/>
      <path d="M1141.3,382.6c-5.5-1.5-10.2,1.5-15.6,4.1-9.4,4.3-19.7,12.1-29.3,10.7-24.7-6.6-3.1-34.9-.5-49.9,1.9-10.5-7.1-10-13.4-5.8-9.8,6.1-18.7,12.6-27.2,20.7-7.3,6.9-17.6,10.3-24.2,17.9-5,5.3-7.8,12.9-13.9,17-5.6,3.9-12.3,1-13.7-5.6-1.7-9.5,3.4-19.1,6.2-28.1,6.4-17.9,12-35.1,16.3-53.6.6-3.5,2.5-10.3-2.7-9.9-23.1,16.4-43.2,27.6-57.9,35.1-36.6,18.6-45.9,16.8-46.6,15.3-.2-.4,0-1.3-.3-4.4-.1-1-.2-1.9-.3-2.5-.1-.6-.2-1-.2-1.1-.4-2.1,27.7-12.5,40.8-18.7.7-.3.4-.2,32.6-21.2,13.8-9,20.4-14.4,30.3-21.7,19.6-14.5,20.7-25.9,26.4-47.9,9.7-29.9,20.9-59.3,30.8-89.1,3.3-9.8,6.6-19.7,11.3-28.9,4.1-8.2,10.4-15,15-22.8,3.6-5.9,6-13.2,10.2-18.5,8.1-10.8,28.9-18.8,31.4,0,1.8,9.3,1,19.2-.3,28.6-4.1,24.7-11,49.5-20.1,73.1-8,18.1-17.6,35.9-30,51.1-10.1,13.1-22.1,25.3-30.5,39.6-6.8,14-10.5,29.2-15.6,44-6,16.8-2.3,28.3,16.1,16.4,7.5-4.5,14.8-10.1,23.6-11.4,13-2.1,27.3,5.4,27.9,18.8,1.2,9.2-1.7,18.8-4.3,27.4-.9,3.8-.8,6.8,1,8,8.4,3,20.8-8,23.3-15.9,2.9-7.7,1.4-17,3.8-24.9,2.5-8.7,10.9-19.2,20.9-16.8,15.3,7.3,6.2,29.4,3.2,42.1-2.1,9.9.4,20.7,5.7,29.4,4.9,8.4,11.7,16.3,21,19.3,12.1,3.6,27,4.2,38.9,6.7,10,2.9-1.9,14.8,14.2,16.9,21.2,1.8,43,0,64.2-1.8,3.7-.3,8.5-.7,11.1-2.9,2-1.8-.9-4.2-5.9-6.5-4-1.8-8.4-3.4-11.1-6.9-2.7-3.1-1-6.5,2.4-8.4,1.3-.8,3-1.5,4.5-2,7-2,14.3-4.9,21.6-3.6,8.3,1.7,16.9,8.3,18.8,16.1,1.8,7.5.2,16.8-4.2,23.1-3.9,4.9-11,6.5-18,7-34.1,1.9-68.7.5-102.7,4.7-17.2.4-34.1-.6-51,1.9-20.1,1.8-40.5,1.1-60.6,3-70.9,8.1-140.8,21.9-211.7,30.2-22.8,3.2-45.8,4.6-68.8,6.9-15.3,1.6-30.4,4.6-45.7,6.3-45,4.2-90.2,7.5-135.3,12.7-66.6,8.8-134,15.2-200.6,24.7-36.1,5.9-72.8,10.3-108.7,16.2-30.9,5.6-62.3,7.1-93.6,8.7-6.1.2-12.3.2-18.4-.5-30.2-3.1-21.3-22.4-2.8-37.1,5-3.4,11.1-4,17-4.1,11.4,0,22.4-2.2,33.6-2.9,9.7-.6,19-3.1,28.3-5.7,14.3-4.1,29.1-6.4,43.8-9.6,16.6-3.7,33.1-7.5,50-9.4,49.1-8.4,99-14.7,148.6-19.9,29-4,57.8-8.1,87-11,10.7-1.1,21.5-1.6,32.2-2.5,31.7-1.9,63.2-9.1,95.1-9.8,18.7-.1,36.8-3.7,55.3-5.3,11.8-.3,24.1.2,36-.9,29.9-2.2,59.9-1.9,89.8-2.3,20.4-1.4,40.8-2.1,61.2-1.4,23.6.4,47.6-1.7,70.9-2.2,20.7-.7,41.9-3.7,61.1-11.5,6.1-2.4,14-4.8,16-11.3,3.6-11.1-12.3-24.2-13.7-25.4ZM970.4,453.3c.9-3.6-7.7-4.7-12-4.4-41.4,3.4-83.4,2.1-124.8,5.4-15.3,1.1-30.6,2.4-45.9,3.6-14.7,1.1-29.1.6-43.7,2.6-35.4,4.5-71.2,6.8-106.3,12.6-63.4,9.1-127.7,11.7-190.9,22.6-24,3.3-47.5,8.7-71.2,13.7-33.3,6.3-67.2,11-100.9,16.6-5.2.5-15,3.7-14.3,8.4.3,2.6,4.2,4.2,8.9,3.9,16-1.5,32.3-2.1,48.4-4.2,49.7-7.5,99.3-15.7,149.2-21.1,35.5-3.2,71-10.2,106.6-13.3,17.3-3.5,34.9-4.4,52.3-7.1,8.8-1,18-.5,26.9-1.3,21-2.7,42-4.5,63.1-6.5,58.1-6.5,116-12.2,173.7-20.8,24.1-2.9,48.7-5.1,72.6-7.5,4.1-.4,7.4-1.6,8.1-3.2v-.2ZM1070.8,230.7c.8.7,2.1,0,3.8-1.6,3-2.9,5.7-7,8.2-10.5,10.8-15.6,21.5-31.4,28.4-49.2,7.3-17.9,13.5-36.1,16.5-55.2,1.8-7.1,1.1-22.8-9.4-13.9-11.3,13-16.7,30.2-21.8,46.4-6,16.5-9.6,34-16,50.3-3.6,8.8-8,17.7-10,26.9-.6,3.1-.7,5.7.1,6.7h.1Z"/>
      <path d="M1190.2,252.2c4.7-.4,10.3,2.1,12.3,6.5,1.6,3.1.6,7.2,1.6,10.9.6,2.3,1.5,5,.6,7.3-3.3,7.1-11.2.6-14.8-3.1-3.9-4.2-8.4-8.8-7-14.3,1-3.2,3.6-6.4,6.9-7.2h.5Z"/>
    </g>
  </g>
</svg>